<svg xmlns="http://www.w3.org/2000/svg" xmlns:xlink="http://www.w3.org/1999/xlink" width="30" height="484" version="1.1" viewBox="0 0 30 484"><title>Artboard</title><desc>Created with Sketch.</desc><defs><linearGradient id="linearGradient-1" x1="50%" x2="50%" y1="0%" y2="100%"><stop offset="0%" stop-color="#D8D8D8" stop-opacity=".5"/><stop offset="50.436%" stop-color="#EEE" stop-opacity=".5"/><stop offset="100%" stop-color="#D8D8D8" stop-opacity=".5"/></linearGradient></defs><g id="Artboard" fill="none" fill-rule="evenodd" stroke="none" stroke-width="1"><g id="0"><rect id="Rectangle" width="30" height="44" x="0" y="0" fill="url(#linearGradient-1)"/><text fill="#FFF" font-family="Roboto-Regular, Roboto" font-size="35" font-weight="normal"><tspan x="5.173" y="34">0</tspan></text></g><g id="1" transform="translate(0.000000, 44.000000)"><rect id="Rectangle" width="30" height="44" x="0" y="0" fill="url(#linearGradient-1)"/><text fill="#FFF" font-family="Roboto-Regular, Roboto" font-size="35" font-weight="normal"><tspan x="5.173" y="34">1</tspan></text></g><g id="2" transform="translate(0.000000, 88.000000)"><rect id="Rectangle" width="30" height="44" x="0" y="0" fill="url(#linearGradient-1)"/><text fill="#FFF" font-family="Roboto-Regular, Roboto" font-size="35" font-weight="normal"><tspan x="5.173" y="34">2</tspan></text></g><g id="3" transform="translate(0.000000, 132.000000)"><rect id="Rectangle" width="30" height="44" x="0" y="0" fill="url(#linearGradient-1)"/><text fill="#FFF" font-family="Roboto-Regular, Roboto" font-size="35" font-weight="normal"><tspan x="5.173" y="34">3</tspan></text></g><g id="4" transform="translate(0.000000, 176.000000)"><rect id="Rectangle" width="30" height="44" x="0" y="0" fill="url(#linearGradient-1)"/><text fill="#FFF" font-family="Roboto-Regular, Roboto" font-size="35" font-weight="normal"><tspan x="5.173" y="34">4</tspan></text></g><g id="Group" transform="translate(0.000000, 220.000000)"><rect id="Rectangle" width="30" height="44" x="0" y="0" fill="url(#linearGradient-1)"/><text id="5" fill="#FFF" font-family="Roboto-Regular, Roboto" font-size="35" font-weight="normal"><tspan x="5.173" y="34">5</tspan></text></g><g id="Group" transform="translate(0.000000, 264.000000)"><rect id="Rectangle" width="30" height="44" x="0" y="0" fill="url(#linearGradient-1)"/><text id="6" fill="#FFF" font-family="Roboto-Regular, Roboto" font-size="35" font-weight="normal"><tspan x="5.173" y="34">6</tspan></text></g><g id="Group" transform="translate(0.000000, 308.000000)"><rect id="Rectangle" width="30" height="44" x="0" y="0" fill="url(#linearGradient-1)"/><text id="7" fill="#FFF" font-family="Roboto-Regular, Roboto" font-size="35" font-weight="normal"><tspan x="5.173" y="34">7</tspan></text></g><g id="Group" transform="translate(0.000000, 352.000000)"><rect id="Rectangle" width="30" height="44" x="0" y="0" fill="url(#linearGradient-1)"/><text id="8" fill="#FFF" font-family="Roboto-Regular, Roboto" font-size="35" font-weight="normal"><tspan x="5.173" y="34">8</tspan></text></g><g id="Group" transform="translate(0.000000, 396.000000)"><rect id="Rectangle" width="30" height="44" x="0" y="0" fill="url(#linearGradient-1)"/><text id="9" fill="#FFF" font-family="Roboto-Regular, Roboto" font-size="35" font-weight="normal"><tspan x="5.173" y="34">9</tspan></text></g><g id="Group" transform="translate(0.000000, 440.000000)"><rect id="Rectangle" width="30" height="44" x="0" y="0" fill="url(#linearGradient-1)"/><text id="0" fill="#FFF" font-family="Roboto-Regular, Roboto" font-size="35" font-weight="normal"><tspan x="5.173" y="34">0</tspan></text></g></g></svg>